<?xml version="1.0" encoding="UTF-8" standalone="no"?>
<svg
   width="598.67999"
   height="598.67999"
   id="svg2"
   version="1.1"
   inkscape:version="1.3.2 (091e20ef0f, 2023-11-25, custom)"
   sodipodi:docname="10a_corner.svg"
   viewBox="0 0 561.26247 561.26247"
   xmlns:inkscape="http://www.inkscape.org/namespaces/inkscape"
   xmlns:sodipodi="http://sodipodi.sourceforge.net/DTD/sodipodi-0.dtd"
   xmlns="http://www.w3.org/2000/svg"
   xmlns:svg="http://www.w3.org/2000/svg"
   xmlns:rdf="http://www.w3.org/1999/02/22-rdf-syntax-ns#"
   xmlns:cc="http://creativecommons.org/ns#"
   xmlns:dc="http://purl.org/dc/elements/1.1/">
  <metadata
     id="metadata12">
    <rdf:RDF>
      <cc:Work
         rdf:about="">
        <dc:format>image/svg+xml</dc:format>
        <dc:type
           rdf:resource="http://purl.org/dc/dcmitype/StillImage" />
      </cc:Work>
    </rdf:RDF>
  </metadata>
  <defs
     id="defs10" />
  <sodipodi:namedview
     pagecolor="#ffffff"
     bordercolor="#666666"
     borderopacity="1"
     objecttolerance="10"
     gridtolerance="10"
     guidetolerance="10"
     inkscape:pageopacity="0"
     inkscape:pageshadow="2"
     inkscape:window-width="1916"
     inkscape:window-height="1137"
     id="namedview8"
     showgrid="false"
     fit-margin-top="0"
     fit-margin-left="0"
     fit-margin-right="0"
     fit-margin-bottom="0"
     inkscape:zoom="1.4142136"
     inkscape:cx="344.71455"
     inkscape:cy="243.59828"
     inkscape:window-x="0"
     inkscape:window-y="0"
     inkscape:window-maximized="1"
     inkscape:current-layer="svg2"
     inkscape:showpageshadow="2"
     inkscape:pagecheckerboard="0"
     inkscape:deskcolor="#d1d1d1" />
  <path
     id="rect6"
     style="stroke-width:0.9375;paint-order:markers fill stroke"
     d="M -1.4317383e-4,-1.4317383e-4 H 561.26261 V 561.26261 H -1.4317383e-4 Z" />
  <path
     id="circle6"
     style="fill:#ffffff;stroke-width:9.58672"
     d="M 496.3325,280.63123 A 215.70128,215.70128 0 0 1 280.63123,496.3325 215.70128,215.70128 0 0 1 64.929947,280.63123 215.70128,215.70128 0 0 1 280.63123,64.929947 215.70128,215.70128 0 0 1 496.3325,280.63123 Z" />
  <path
     style="color:#000000;fill:#080808;-inkscape-stroke:none"
     d="m 280.63086,77.265625 -122.01953,122.019535 81.3457,81.3457 -40.67187,40.67383 -81.34571,-81.34571 -40.673825,40.67188 122.019535,122.01953 81.3457,-81.3457 40.67383,40.67383 -81.34571,81.3457 40.67188,40.67187 122.01953,-122.01953 -81.3457,-81.3457 40.67187,-40.67188 81.34766,81.34571 40.67187,-40.67383 -122.01953,-122.01953 -81.3457,81.3457 -40.67188,-40.67187 81.34571,-81.34571 z"
     id="path8" />
</svg>
