<?xml version="1.0" encoding="UTF-8" standalone="no"?>
<svg
   width="485"
   height="970"
   id="svg2"
   version="1.1"
   inkscape:version="1.3.2 (091e20ef0f, 2023-11-25, custom)"
   sodipodi:docname="10c_edge_v.svg"
   viewBox="0 0 454.68748 909.37496"
   xmlns:inkscape="http://www.inkscape.org/namespaces/inkscape"
   xmlns:sodipodi="http://sodipodi.sourceforge.net/DTD/sodipodi-0.dtd"
   xmlns="http://www.w3.org/2000/svg"
   xmlns:svg="http://www.w3.org/2000/svg"
   xmlns:rdf="http://www.w3.org/1999/02/22-rdf-syntax-ns#"
   xmlns:cc="http://creativecommons.org/ns#"
   xmlns:dc="http://purl.org/dc/elements/1.1/">
  <metadata
     id="metadata12">
    <rdf:RDF>
      <cc:Work
         rdf:about="">
        <dc:format>image/svg+xml</dc:format>
        <dc:type
           rdf:resource="http://purl.org/dc/dcmitype/StillImage" />
      </cc:Work>
    </rdf:RDF>
  </metadata>
  <defs
     id="defs10">
    <clipPath
       clipPathUnits="userSpaceOnUse"
       id="clipPath12">
      <path
         id="path12"
         style="fill:#ffffff;stroke-width:0;stroke-miterlimit:12.2"
         inkscape:transform-center-x="-0.39782724"
         inkscape:transform-center-y="0.42690147"
         d="m 86.579695,-214.28201 c -4.66268,-9.17943 -306.326645,137.058706 -310.445235,127.604686 -4.11859,-9.454034 301.528365,-146.549396 297.968895,-156.243516 -3.55948,-9.69411 -320.057425,97.84901 -323.044805,87.95017 -2.98739,-9.89883 316.399585,-107.86902 313.995205,-117.93645 -2.40439,-10.06745 -329.121055,57.21245 -330.933655,47.01314 -1.81261,-10.1993 326.656985,-67.61566 325.442765,-77.90961 -1.21422,-10.29395 -333.385345,15.74159 -333.996745,5.39057 -0.61141,-10.35104 332.150985,-26.37633 332.144625,-36.74669 -0.006,-10.37035 -332.788125,-25.95883 -332.189405,-36.3106 0.5987,-10.35187 332.801475,15.24758 334.003075,4.95202 1.2016,-10.29546 -327.338115,-67.28055 -325.538005,-77.48231 1.8001,-10.20167 328.598975,56.64926 330.991015,46.57871 2.39204,-10.07064 -317.114775,-107.62141 -314.139525,-117.52416 2.97524,-9.90274 319.604775,97.22476 323.152365,87.52594 3.54759,-9.69872 -302.267195,-146.39268 -298.160205,-155.8521 4.10701,-9.45942 305.950015,136.38247 310.601425,127.19699 4.65142,-9.18559 4.81089,250.97265 0.14821,241.79321 z"
         sodipodi:nodetypes="ssssssssssssssssss" />
    </clipPath>
    <clipPath
       clipPathUnits="userSpaceOnUse"
       id="clipPath12-7">
      <path
         id="path12-5"
         style="fill:#ffffff;stroke-width:0;stroke-miterlimit:12.2"
         inkscape:transform-center-x="-0.39782724"
         inkscape:transform-center-y="0.42690147"
         d="m 86.579695,-214.28201 c -4.66268,-9.17943 -306.326645,137.058706 -310.445235,127.604686 -4.11859,-9.454034 301.528365,-146.549396 297.968895,-156.243516 -3.55948,-9.69411 -320.057425,97.84901 -323.044805,87.95017 -2.98739,-9.89883 316.399585,-107.86902 313.995205,-117.93645 -2.40439,-10.06745 -329.121055,57.21245 -330.933655,47.01314 -1.81261,-10.1993 326.656985,-67.61566 325.442765,-77.90961 -1.21422,-10.29395 -333.385345,15.74159 -333.996745,5.39057 -0.61141,-10.35104 332.150985,-26.37633 332.144625,-36.74669 -0.006,-10.37035 -332.788125,-25.95883 -332.189405,-36.3106 0.5987,-10.35187 332.801475,15.24758 334.003075,4.95202 1.2016,-10.29546 -327.338115,-67.28055 -325.538005,-77.48231 1.8001,-10.20167 328.598975,56.64926 330.991015,46.57871 2.39204,-10.07064 -317.114775,-107.62141 -314.139525,-117.52416 2.97524,-9.90274 319.604775,97.22476 323.152365,87.52594 3.54759,-9.69872 -302.267195,-146.39268 -298.160205,-155.8521 4.10701,-9.45942 305.950015,136.38247 310.601425,127.19699 4.65142,-9.18559 4.81089,250.97265 0.14821,241.79321 z"
         sodipodi:nodetypes="ssssssssssssssssss" />
    </clipPath>
    <clipPath
       clipPathUnits="userSpaceOnUse"
       id="clipPath12-2">
      <path
         id="path12-8"
         style="fill:#ffffff;stroke-width:0;stroke-miterlimit:12.2"
         inkscape:transform-center-x="-0.39782724"
         inkscape:transform-center-y="0.42690147"
         d="m 86.579695,-214.28201 c -4.66268,-9.17943 -306.326645,137.058706 -310.445235,127.604686 -4.11859,-9.454034 301.528365,-146.549396 297.968895,-156.243516 -3.55948,-9.69411 -320.057425,97.84901 -323.044805,87.95017 -2.98739,-9.89883 316.399585,-107.86902 313.995205,-117.93645 -2.40439,-10.06745 -329.121055,57.21245 -330.933655,47.01314 -1.81261,-10.1993 326.656985,-67.61566 325.442765,-77.90961 -1.21422,-10.29395 -333.385345,15.74159 -333.996745,5.39057 -0.61141,-10.35104 332.150985,-26.37633 332.144625,-36.74669 -0.006,-10.37035 -332.788125,-25.95883 -332.189405,-36.3106 0.5987,-10.35187 332.801475,15.24758 334.003075,4.95202 1.2016,-10.29546 -327.338115,-67.28055 -325.538005,-77.48231 1.8001,-10.20167 328.598975,56.64926 330.991015,46.57871 2.39204,-10.07064 -317.114775,-107.62141 -314.139525,-117.52416 2.97524,-9.90274 319.604775,97.22476 323.152365,87.52594 3.54759,-9.69872 -302.267195,-146.39268 -298.160205,-155.8521 4.10701,-9.45942 305.950015,136.38247 310.601425,127.19699 4.65142,-9.18559 4.81089,250.97265 0.14821,241.79321 z"
         sodipodi:nodetypes="ssssssssssssssssss" />
    </clipPath>
    <clipPath
       clipPathUnits="userSpaceOnUse"
       id="clipPath1">
      <rect
         style="fill:#ffffff;stroke-width:0;stroke-linecap:butt;stroke-miterlimit:12.2;stroke-dasharray:none"
         id="rect2"
         width="886.18121"
         height="443.09061"
         x="-173.0296"
         y="-556.87006"
         rx="0"
         ry="0"
         clip-path="url(#clipPath12-2)"
         transform="matrix(1.0777472,0,0,1.0261797,413.45331,67.836568)"
         inkscape:label="strahlen_links" />
    </clipPath>
    <clipPath
       clipPathUnits="userSpaceOnUse"
       id="clipPath1-3">
      <rect
         style="fill:#ffffff;stroke-width:0;stroke-linecap:butt;stroke-miterlimit:12.2;stroke-dasharray:none"
         id="rect2-6"
         width="886.18121"
         height="443.09061"
         x="-173.0296"
         y="-556.87006"
         rx="0"
         ry="0"
         clip-path="url(#clipPath12-2-1)"
         transform="matrix(1.0777472,0,0,1.0261797,413.45331,67.836568)"
         inkscape:label="strahlen_links" />
    </clipPath>
    <clipPath
       clipPathUnits="userSpaceOnUse"
       id="clipPath12-2-1">
      <path
         id="path12-8-2"
         style="fill:#ffffff;stroke-width:0;stroke-miterlimit:12.2"
         inkscape:transform-center-x="-0.39782724"
         inkscape:transform-center-y="0.42690147"
         d="m 86.579695,-214.28201 c -4.66268,-9.17943 -306.326645,137.058706 -310.445235,127.604686 -4.11859,-9.454034 301.528365,-146.549396 297.968895,-156.243516 -3.55948,-9.69411 -320.057425,97.84901 -323.044805,87.95017 -2.98739,-9.89883 316.399585,-107.86902 313.995205,-117.93645 -2.40439,-10.06745 -329.121055,57.21245 -330.933655,47.01314 -1.81261,-10.1993 326.656985,-67.61566 325.442765,-77.90961 -1.21422,-10.29395 -333.385345,15.74159 -333.996745,5.39057 -0.61141,-10.35104 332.150985,-26.37633 332.144625,-36.74669 -0.006,-10.37035 -332.788125,-25.95883 -332.189405,-36.3106 0.5987,-10.35187 332.801475,15.24758 334.003075,4.95202 1.2016,-10.29546 -327.338115,-67.28055 -325.538005,-77.48231 1.8001,-10.20167 328.598975,56.64926 330.991015,46.57871 2.39204,-10.07064 -317.114775,-107.62141 -314.139525,-117.52416 2.97524,-9.90274 319.604775,97.22476 323.152365,87.52594 3.54759,-9.69872 -302.267195,-146.39268 -298.160205,-155.8521 4.10701,-9.45942 305.950015,136.38247 310.601425,127.19699 4.65142,-9.18559 4.81089,250.97265 0.14821,241.79321 z"
         sodipodi:nodetypes="ssssssssssssssssss" />
    </clipPath>
  </defs>
  <sodipodi:namedview
     pagecolor="#ffffff"
     bordercolor="#666666"
     borderopacity="1"
     objecttolerance="10"
     gridtolerance="10"
     guidetolerance="10"
     inkscape:pageopacity="0"
     inkscape:pageshadow="2"
     inkscape:window-width="1916"
     inkscape:window-height="1137"
     id="namedview8"
     showgrid="true"
     fit-margin-top="0"
     fit-margin-left="0"
     fit-margin-right="0"
     fit-margin-bottom="0"
     inkscape:zoom="1.4142136"
     inkscape:cx="411.18258"
     inkscape:cy="575.93846"
     inkscape:window-x="0"
     inkscape:window-y="0"
     inkscape:window-maximized="1"
     inkscape:current-layer="svg2"
     inkscape:showpageshadow="2"
     inkscape:pagecheckerboard="0"
     inkscape:deskcolor="#d1d1d1">
    <inkscape:grid
       id="grid6"
       units="px"
       originx="0"
       originy="0"
       spacingx="0.93749996"
       spacingy="0.93749996"
       empcolor="#0099e5"
       empopacity="0.30196078"
       color="#0099e5"
       opacity="0.14901961"
       empspacing="5"
       dotted="false"
       gridanglex="30"
       gridanglez="30"
       visible="true" />
  </sodipodi:namedview>
  <path
     id="rect1"
     style="stroke-width:0;stroke-miterlimit:12.2"
     inkscape:label="hintergrund"
     transform="rotate(90)"
     d="M 1.0517578e-5,-454.68747 H 909.37495 V 0 H 1.0517578e-5 Z" />
  <path
     id="rect1-2"
     clip-path="url(#clipPath1)"
     style="fill:#ffffff;stroke-width:0;stroke-linecap:butt;stroke-miterlimit:12.2;stroke-dasharray:none"
     inkscape:label="strahlen_links"
     d="m 226.97201,-503.61147 v 454.687482 h 454.68748 c -125.9483,0 -227.34374,-101.395442 -227.34374,-227.343742 0,-125.94831 101.39544,-227.34374 227.34374,-227.34374 z m 454.68748,0 c 125.94833,0 227.34374,101.39543 227.34374,227.34374 0,125.9483 -101.39541,227.343742 -227.34374,227.343742 H 1136.347 V -503.61147 Z"
     transform="rotate(90,89.02402,-137.94801)" />
  <path
     id="rect1-2-9"
     clip-path="url(#clipPath1-3)"
     style="fill:#ffffff;stroke-width:0;stroke-linecap:butt;stroke-miterlimit:12.2;stroke-dasharray:none"
     inkscape:label="strahlen_rechts"
     d="m 226.97201,-503.61147 v 454.687482 h 454.68748 c -125.9483,0 -227.34374,-101.395442 -227.34374,-227.343742 0,-125.94831 101.39544,-227.34374 227.34374,-227.34374 z m 454.68748,0 c 125.94833,0 227.34374,101.39543 227.34374,227.34374 0,125.9483 -101.39541,227.343742 -227.34374,227.343742 H 1136.347 V -503.61147 Z"
     transform="matrix(0,-1,-1,0,-48.92399,1136.347)" />
  <path
     id="rect6"
     style="stroke-width:0;paint-order:markers fill stroke"
     d="m 454.68748,454.68748 c 0,125.94842 -101.39531,227.34374 -227.34375,227.34374 C 101.39531,682.03122 0,580.6359 0,454.68748 0,328.73905 101.39531,227.34374 227.34373,227.34374 c 125.94844,0 227.34375,101.39531 227.34375,227.34374 z"
     inkscape:label="schwarzer_rand" />
  <path
     id="circle6"
     style="fill:#ffffff;stroke-width:9.58672"
     inkscape:label="weißer_kreis"
     transform="rotate(90)"
     d="M 670.38875,-227.34375 A 215.70128,215.70128 0 0 1 454.68747,-11.642471 215.70128,215.70128 0 0 1 238.98619,-227.34375 215.70128,215.70128 0 0 1 454.68747,-443.04503 215.70128,215.70128 0 0 1 670.38875,-227.34375 Z" />
  <path
     style="color:#000000;fill:#080808;-inkscape-stroke:none"
     d="m 227.34375,238.98633 -138.175781,138.17578 77.525391,77.52539 -16.875,16.875 -77.525391,-77.52539 -60.650391,60.65039 138.175782,138.17578 77.52539,-77.52539 16.875,16.875 -77.52539,77.52539 60.65039,60.65039 138.17578,-138.17578 -77.52539,-77.52539 16.875,-16.875 77.52539,77.52539 60.65039,-60.65039 -138.17578,-138.17578 -77.52539,77.52539 -16.875,-16.875 77.52539,-77.52539 z"
     id="path8" />
  <g
     inkscape:groupmode="layer"
     id="layer3"
     inkscape:label="Layer 1" />
</svg>
