<?xml version="1.0" encoding="UTF-8" standalone="no"?>
<!-- Created with Inkscape (http://www.inkscape.org/) -->

<svg
   width="128mm"
   height="128mm"
   viewBox="0 0 128 128"
   version="1.1"
   id="svg1"
   inkscape:version="1.3.2 (091e20ef0f, 2023-11-25, custom)"
   sodipodi:docname="Deutsches_Schrifttum_Blankenburg_v3_pfad_adler.svg"
   xml:space="preserve"
   xmlns:inkscape="http://www.inkscape.org/namespaces/inkscape"
   xmlns:sodipodi="http://sodipodi.sourceforge.net/DTD/sodipodi-0.dtd"
   xmlns="http://www.w3.org/2000/svg"
   xmlns:svg="http://www.w3.org/2000/svg"><sodipodi:namedview
     id="namedview1"
     pagecolor="#ffffff"
     bordercolor="#000000"
     borderopacity="0.25"
     inkscape:showpageshadow="true"
     inkscape:pageopacity="0.0"
     inkscape:pagecheckerboard="false"
     inkscape:deskcolor="#d1d1d1"
     inkscape:document-units="mm"
     showborder="false"
     labelstyle="default"
     borderlayer="true"
     showgrid="true"
     showguides="false"
     inkscape:zoom="0.9156133"
     inkscape:cx="199.86604"
     inkscape:cy="337.47872"
     inkscape:window-width="2876"
     inkscape:window-height="1737"
     inkscape:window-x="0"
     inkscape:window-y="0"
     inkscape:window-maximized="1"
     inkscape:current-layer="layer4"><inkscape:grid
       id="grid1"
       units="px"
       originx="0"
       originy="0"
       spacingx="0.26458333"
       spacingy="0.26458333"
       empcolor="#0099e5"
       empopacity="0.30196078"
       color="#0099e5"
       opacity="0.14901961"
       empspacing="5"
       dotted="false"
       gridanglex="30"
       gridanglez="30"
       visible="true" /></sodipodi:namedview><defs
     id="defs1" /><g
     inkscape:groupmode="layer"
     id="layer3"
     inkscape:label="Deutsches"
     style="display:inline"><path
       d="m 32.814499,26.834527 2.618909,-1.559948 -6.19738,-7.288803 -2.63262,1.543823 z m -8.04062,-6.221674 -0.837758,0.517827 -1.053418,-1.827113 6.809337,-3.983775 7.184573,8.44985 -0.212405,3.181229 -5.288611,3.190867 -0.267228,-2.078826 z m 18.112006,-7.214585 -1.23008,7.133767 3.522152,-0.742896 0.06268,2.062991 -4.71103,1.069596 -2.936986,-5.701511 0.899846,-3.106439 z m -1.772889,6.080023 0.664367,-3.794679 -2.418804,0.388826 z m 12.220856,-0.427836 -3.934593,-0.345473 -1.499004,-5.8433 -1.455263,-0.391499 0.557566,-2.000462 2.612431,0.728357 1.430628,5.576763 2.501442,0.210528 -1.341215,-5.228217 -1.455262,-0.391499 0.557566,-2.0004619 2.61243,0.7283569 1.467446,5.720284 1.383771,0.453543 -0.629594,1.975236 -2.145054,-0.695291 z m 7.953097,-13.6001264 0.123897,2.3674307 1.289404,-0.06748 0.109516,2.0926396 -1.289404,0.06748 0.304211,5.8128881 1.508406,0.472146 -0.940616,1.872054 -2.562962,-0.777284 -0.564174,-10.7802647 z m 14.607786,6.4162714 -2.398997,-1.363312 -1.220393,5.236 2.46704,1.444373 -1.654859,1.505151 -3.24356,-1.842702 1.532698,-6.575921 3.117688,-1.5336776 2.410003,1.4093446 0.860041,-3.6899369 2.255619,-0.5392341 -1.181956,5.071086 1.156868,-0.86053 2.868319,1.494434 -2.897232,12.430346 -2.300257,0.6375 2.786724,-11.95622 -1.797,-0.962191 -1.234807,5.297842 1.084495,1.035197 -1.418494,1.516774 -1.960058,-1.847823 1.532698,-6.575921 z m -4.629687,-5.6866916 -3.545867,15.2132586 -2.303666,0.745376 3.858172,-16.55318 2.35295,-1.5163142 3.187918,1.8949356 -0.873534,1.8828666 z m 22.42005,12.2004046 -6.694862,2.753644 2.502845,2.587126 -1.713474,1.150594 -3.411965,-3.419991 3.26521,-5.520101 3.109073,-0.890706 z m -6.091391,1.733428 3.566557,-1.456243 -1.616052,-1.841243 z m 10.751425,4.256772 1.612352,2.817837 -2.639336,2.892698 -2.964495,0.04588 -2.430342,-3.993982 2.150841,-0.473076 1.767345,2.930601 1.540801,-1.688711 -0.425714,-0.789574 -1.473804,0.861588 -1.609613,-2.758032 2.653603,-2.908334 2.964495,-0.04588 2.352165,3.922648 -2.054289,0.618483 -1.799987,-2.989038 -1.540801,1.688711 0.407339,0.715502 z"
       id="text3-6"
       style="font-size:21.1667px;line-height:0;font-family:Blankenburg;-inkscape-font-specification:Blankenburg;letter-spacing:2.11667px;word-spacing:0px;stroke:#000000;stroke-width:0;stroke-miterlimit:12.2"
       inkscape:label="Deutsches Text"
       aria-label="DeutÀe$" /><ellipse
       style="display:none;opacity:0.15;fill:#000000;stroke:#000000;stroke-width:0;stroke-miterlimit:12.2;stroke-dasharray:none;stroke-opacity:1"
       id="path5"
       cx="-88.952354"
       cy="-0.6200766"
       transform="matrix(-0.72416911,-0.68962243,0.68975523,-0.72404262,0,0)"
       inkscape:transform-center-x="-2.2039472"
       inkscape:transform-center-y="-0.31631002"
       rx="44.120182"
       ry="43.87949"
       inkscape:label="Deutsches Kreis" /></g><g
     inkscape:groupmode="layer"
     id="layer2"
     inkscape:label="Schrifttum"
     style="display:inline"><path
       d="m 32.839371,94.450488 -3.31897,3.704977 0.339296,0.446034 2.738302,-0.360341 1.225146,1.836362 -5.154996,5.75454 -2.624994,-0.30543 -2.527816,-4.53787 1.769032,-1.086542 2.313005,4.174932 3.686176,-4.114888 -0.552465,-0.779083 -2.768192,0.361983 -1.011977,-1.503315 4.801915,-5.360391 2.640759,0.319556 2.484787,4.300399 -1.769033,1.086539 z m 6.763117,11.720132 -1.86268,-1.92325 -2.500524,4.80723 1.928025,1.9811 -1.947935,1.03863 -2.703915,-2.59941 3.115888,-5.99026 3.400673,-0.71244 1.985117,1.96308 1.738646,-3.34252 2.328649,0.0183 -2.402847,4.61944 1.343171,-0.51814 2.672416,2.20128 -5.899675,11.34205 -2.357953,0.038 5.655483,-10.87259 -1.794381,-1.45826 -2.500525,4.80723 0.812614,1.28161 -1.750385,1.11753 -1.459252,-2.28602 3.115887,-5.99025 z m 13.836817,2.36093 2.711471,1.77475 -1.620761,1.42098 -2.245482,-1.44661 -1.24147,5.23104 1.100912,1.04445 -1.42459,1.51105 -1.973196,-1.86059 1.363662,-5.74591 -1.013646,-1.04549 1.497194,-1.45031 1.606335,1.66475 z m 6.157465,-2.55012 1.795923,0.10802 -0.613999,2.80453 -1.352224,-0.0813 z m -0.131538,3.59693 2.113486,1.52665 -0.350767,5.83147 1.264216,0.83942 -1.143324,1.73365 -2.263927,-1.49329 0.354579,-5.89486 -1.17843,-0.85546 z m 11.927911,1.44718 -2.682599,0.3797 1.646365,11.63158 -1.887745,1.46435 -1.812484,-12.80522 -0.943101,0.13349 -0.293676,-2.07482 0.943101,-0.13349 -0.394534,-2.78739 2.122404,-2.37404 3.498025,1.00131 -0.996037,1.72293 -2.549762,-0.4942 0.373769,2.64068 2.682599,-0.3797 -0.198751,-1.40417 1.920376,-1.23381 0.332239,2.34727 1.278426,-0.18095 0.293676,2.07482 -1.278426,0.18095 0.815766,5.7634 1.565131,0.33429 -0.792778,1.95069 -2.621534,-0.54818 z m 7.337003,-6.53839 0.788577,2.23567 1.217642,-0.42949 0.697045,1.97617 -1.217642,0.42949 1.936237,5.48938 1.580356,0.0261 -0.372592,2.06168 -2.678157,-0.0205 -3.590839,-10.18029 z m 13.953289,7.0636 -3.882162,0.72746 -3.018006,-5.2233 -1.506928,0.0151 -0.0021,-2.07671 2.712064,-0.002 2.880342,4.98504 2.465654,-0.47126 -2.700321,-4.67347 -1.506928,0.0151 -0.0021,-2.07671 2.712064,-0.002 2.954468,5.11333 1.454798,0.0639 -0.07409,2.07182 -2.253063,-0.0916 z m 2.768126,-14.199562 3.52095,-1.606121 -0.372303,-1.471143 3.596292,-1.650162 4.20165,4.299115 1.45601,-0.357508 0.53092,1.996844 -2.62714,0.67338 -4.00932,-4.102325 -2.227338,1.052166 3.728228,3.814706 1.456,-0.357507 0.53093,1.996847 -2.62714,0.67338 -4.009323,-4.102328 -2.272413,1.066617 3.743016,3.829841 1.47115,-0.3723 0.51578,2.01164 -2.627136,0.67338 -4.127676,-4.22343 -1.425386,0.29799 -0.440785,-2.025747 2.430691,-0.510982 z"
       id="text3-1-8"
       style="font-size:21.1667px;line-height:0;font-family:Blankenburg;-inkscape-font-specification:Blankenburg;letter-spacing:4.23333px;word-spacing:0px;stroke:#000000;stroke-width:0;stroke-miterlimit:12.2"
       inkscape:label="Schrifttum Text"
       aria-label="Sàriítum" /><ellipse
       style="display:none;opacity:0.15;fill:#000000;stroke:#000000;stroke-width:0;stroke-miterlimit:12.2;stroke-dasharray:none;stroke-opacity:1"
       id="path5-0"
       cx="-6.9522924"
       cy="84.939217"
       transform="matrix(-0.66918752,0.74309357,0.69870683,0.71540811,0,0)"
       inkscape:transform-center-x="-3.0212274"
       inkscape:transform-center-y="0.31159548"
       rx="62.378643"
       ry="61.68391"
       inkscape:label="Schrifttum Kreis" /></g><g
     inkscape:groupmode="layer"
     id="layer4"
     inkscape:label="Text Cache"><g
       id="g1"
       transform="matrix(0.08312311,0,0,0.08312311,10.168767,31.193689)"><path
         d="m 634.717,411.25 c -4.95,-2.42 -10.207,-5.434 -11.682,-6.697 l -2.681,-2.297 -0.692,-30.101 -0.691,-30.101 2.373,-0.78 c 1.305,-0.43 12.172,-0.99 24.148,-1.248 18.92,-0.405 22.1,-0.254 24.25,1.155 l 2.475,1.621 v 57.471 l -7.912,5.18 c -8.895,5.824 -17.38,10.33 -19.305,10.25 -0.706,-0.028 -5.333,-2.032 -10.283,-4.453 z m 83.166,-3.744 c -1.737,-2.319 -2.632,-5.166 -3.123,-9.936 -1.32,-12.816 -6.603,-19.17 -16.016,-19.261 -8.184,-0.08 -9.928,2.071 -10.309,12.718 -0.162,4.526 -0.498,9.192 -0.748,10.369 -0.521,2.464 -2.922,3.669 -5.61,2.815 -1.763,-0.559 -1.86,-2.286 -1.86,-32.966 V 338.87 l -2.25,-1.592 c -1.238,-0.875 -5.4,-2.588 -9.25,-3.806 -6.117,-1.936 -9.208,-2.215 -24.5,-2.215 -18.633,0 -24.71,1.125 -30.443,5.634 l -2.557,2.01 -0.015,31.678 c -0.008,17.422 -0.41,32.3 -0.893,33.062 -0.589,0.93 -1.757,1.165 -3.55,0.715 -3.599,-0.903 -5.542,-5.836 -5.542,-14.068 0,-5.199 -0.408,-6.94 -2,-8.532 -2.897,-2.897 -11.289,-2.739 -17.08,0.323 -5.099,2.697 -3.814,7.295 -4.783,17.574 -1.053,11.17 -8.893,12.738 -11.75,4.005 -3.705,-2.155 -1.747,-30.38 -2.84,-76.902 l -1.725,-73.5 -4.484,-25 c -3.162,-17.628 -4.979,-25.47 -6.161,-26.596 -0.922,-0.877 -19.902,-18.016 -42.177,-38.086 -29.001,-26.13 -45.134,-41.506 -56.82,-54.154 l -16.32,-17.664 -4.68,-0.072 c -2.574,-0.04 -13.101,-0.409 -23.394,-0.82 l -18.715,-0.746 -8.469,-4.196 c -6.07,-3.008 -10.801,-6.388 -16.702,-11.931 -9.016,-8.472 -15.9,-16.621 -15.9,-18.825 0,-1.196 8.369,-1.41 55.25,-1.41 60.889,10e-4 57.323,-0.324 70.6,6.435 11.935,6.076 14.745,16.352 9.952,36.388 -2.015,8.42 -2.087,9.578 -0.75,11.962 2.206,3.928 52.47,42.992 57.108,44.381 5.047,1.512 6.32,0.865 17.34,-8.819 8.78,-7.715 26.906,-21.456 35.075,-26.59 8.201,-5.155 9.944,-7.803 14.802,-22.498 5.523,-16.707 8.73,-28.277 8.113,-29.275 -1.46,-2.363 -7.881,-3.984 -15.784,-3.984 -6.955,0 -8.606,-0.297 -9.123,-1.643 -0.346,-0.904 -0.502,-1.772 -0.345,-1.928 0.157,-0.157 7.03,-0.586 15.274,-0.952 14.93,-0.664 22.488,-1.803 22.488,-3.388 0,-1.504 -7.262,-1.901 -22.5,-1.23 -13.2,0.582 -15.6,0.96 -20,3.151 -4.848,2.414 -5.01,2.634 -5.305,7.24 -0.489,7.623 -1.854,5.486 -2.554,-4 -1.342,-18.167 5.412,-38.654 14.588,-44.248 3.51,-2.14 14.126,-2.854 15.256,-1.026 0.332,0.537 0.864,3.178 1.183,5.868 0.549,4.633 1.05,5.322 9.47,13.009 13.13,11.986 15.628,12 25.563,0.135 l 6.27,-7.488 8.764,-0.5 c 8.151,-0.465 8.787,-0.658 9.085,-2.75 l 0.32,-2.25 h -54.14 v -2.89 c 0,-1.588 0.787,-3.837 1.75,-4.996 1.69,-2.034 2.59,-2.109 26.25,-2.163 22.398,-0.05 25.1,0.13 31.5,2.11 3.85,1.192 9.038,3.198 11.529,4.458 l 4.529,2.29 6.826,45.346 c 3.754,24.94 7.066,46.615 7.36,48.168 0.405,2.138 3.592,5.272 13.146,12.928 6.935,5.558 16.354,13.415 20.93,17.46 4.575,4.044 10.086,8.522 12.245,9.95 l 3.925,2.598 4.755,-2.394 c 6.856,-3.452 54.09,-40.645 55.788,-43.928 1.27,-2.458 1.205,-3.634 -0.594,-10.6 -4.206,-16.285 -3.57,-25.271 2.258,-31.91 3.443,-3.92 7.31,-6.13 17.334,-9.903 l 6.707,-2.524 h 54.881 c 30.185,0 54.88,0.337 54.877,0.75 -0.011,2.277 -5.378,8.91 -14.469,17.88 -8.071,7.966 -11.907,10.943 -17.946,13.927 -7.425,3.67 -8.153,3.822 -21.88,4.556 -7.81,0.417 -18.558,0.788 -23.883,0.823 l -9.683,0.064 -16.817,18.067 c -11.868,12.75 -29.105,29.143 -58.563,55.697 -22.96,20.697 -41.948,38.33 -42.195,39.183 -0.556,1.916 -4.911,25.29 -7.042,37.789 -1.144,6.71 -1.95,24.212 -2.947,64 -0.755,30.12 -1.156,56.13 -0.89,57.799 0.265,1.669 0.006,11.972 -0.577,22.897 -1.198,22.445 -1.589,23.568 -8.208,23.568 -3.114,0 -4.23,-0.582 -6.23,-3.25 z m 36.334,-51.491 c -7.867,-3.946 -10.894,-8.867 -11.96,-19.44 -1.026,-10.17 -0.107,-65.684 1.126,-68.069 1.647,-3.186 5.355,-2.15 7.168,2 1.999,4.578 3.609,11.638 3.642,15.97 0.037,4.987 8.849,34.09 12.285,40.581 1.69,3.19 6.362,10.166 10.384,15.5 7.062,9.367 7.247,9.754 5.4,11.306 -1.844,1.549 -8.624,3.184 -18.045,4.353 -3.636,0.45 -5.556,0.028 -10,-2.201 z m -229,1.051 c -5.522,-0.922 -13,-3.424 -13,-4.349 0,-0.54 3.122,-5.21 6.937,-10.376 3.816,-5.166 8.281,-11.799 9.923,-14.74 3.897,-6.975 10.907,-30.755 12.668,-42.97 0.763,-5.293 2.13,-11.48 3.038,-13.75 1.398,-3.493 2.091,-4.125 4.524,-4.125 2.285,0 3.024,0.561 3.618,2.75 0.41,1.512 0.757,18.5 0.77,37.75 0.022,34.349 -0.02,35.074 -2.205,39 -3.382,6.072 -4.586,7.288 -9.368,9.458 -4.172,1.892 -10.593,2.406 -16.905,1.352 z m -39.5,-10.456 c -1.65,-0.61 -4.463,-2.2 -6.25,-3.533 -5.178,-3.86 -4.507,-6.755 3.312,-14.306 3.61,-3.484 7.937,-8.333 9.617,-10.775 6.69,-9.725 17.202,-35.044 19.818,-47.74 0.68,-3.3 2.287,-8.079 3.57,-10.62 6.4,-12.667 17.837,-13.288 19.9,-1.08 0.377,2.234 -0.428,10.581 -2,20.72 -2.169,14.004 -3.512,19.346 -7.666,30.48 -8.453,22.656 -12.934,30.235 -20.497,34.668 -5.006,2.934 -14.847,4.02 -19.804,2.186 z m 307,-0.757 c -8.64,-4.015 -14,-12.408 -22.866,-35.803 -4.848,-12.793 -9.634,-36.667 -9.634,-48.06 0,-9.034 3.47,-13.168 9.871,-11.762 5.339,1.172 13.048,11.995 13.107,18.401 0.064,6.874 13.912,40.338 20.805,50.276 1.66,2.393 5.988,7.32 9.617,10.95 3.63,3.63 6.6,7.386 6.6,8.349 0,2.523 -5.546,7.332 -9.829,8.521 -5.628,1.563 -13.24,1.188 -17.671,-0.872 z m -346.16,-18.032 c -5.823,-3.55 -5.413,-5.079 4.333,-16.2 4.855,-5.54 9.803,-11.288 10.996,-12.773 4.447,-5.535 15.096,-24.992 20.153,-36.82 8.813,-20.615 11.062,-23.272 19.69,-23.272 6.125,0 6.913,1.776 6.187,13.937 -0.708,11.862 -3.635,20.792 -12.634,38.55 -11.075,21.852 -18.776,31.607 -28.548,36.157 -6.484,3.02 -15.604,3.21 -20.178,0.421 z m 381.58,-0.544 c -9.158,-4.772 -17.783,-16.235 -28.84,-38.33 -7.315,-14.622 -10.956,-26.132 -11.735,-37.108 -0.747,-10.526 0.457,-13.083 6.16,-13.083 8.892,0 10.653,2.069 20.011,23.5 3.362,7.7 7.926,16.925 10.142,20.5 2.216,3.575 5.179,8.525 6.584,11 1.405,2.475 7.326,9.883 13.157,16.461 5.83,6.579 10.601,12.27 10.601,12.647 0,0.376 -1.59,2.081 -3.535,3.788 -3.27,2.872 -4.074,3.1 -10.75,3.057 -5.595,-0.036 -8.243,-0.582 -11.795,-2.432 z m 33.137,-15.68 c -4.69,-1.36 -6.003,-2.401 -11.786,-9.341 -5.984,-7.182 -10.121,-13.575 -19.657,-30.37 -8.14,-14.339 -8.786,-15.793 -11.585,-26.11 -2.236,-8.243 -2.578,-14.125 -0.994,-17.086 1.464,-2.735 6.68,-2.492 11.11,0.518 4.002,2.72 12.718,15.347 18.414,26.677 5.784,11.507 8.845,15.4 23.633,30.057 8.242,8.17 13.808,14.464 13.808,15.615 0,6.361 -14.202,12.576 -22.943,10.04 z m -441.008,-1.788 c -2.998,-1.035 -6.035,-2.681 -6.75,-3.658 -3.096,-4.235 -1.8,-6.375 12.956,-21.398 14.397,-14.657 14.885,-15.325 27.552,-37.757 7.883,-13.961 14.858,-20.569 21.15,-20.037 3.26,0.275 3.567,0.59 4.162,4.28 0.765,4.747 -2.967,21.334 -6.252,27.785 -2.649,5.203 -11.952,21.463 -16.151,28.232 -6.32,10.186 -15.947,21.699 -19.324,23.11 -4.538,1.896 -10.822,1.694 -17.343,-0.557 z m -30.568,-17.392 c -3.336,-1.514 -9.002,-7.516 -10.782,-11.422 -1.046,-2.295 -0.8,-2.815 2.828,-5.97 2.185,-1.902 6.22,-4.602 8.964,-6.002 6.674,-3.403 16.84,-13.372 27.295,-26.767 12.733,-16.313 23.164,-28.193 27.222,-31.006 4.892,-3.39 8.444,-3.297 9.795,0.256 3.977,10.458 2.247,17.145 -8.57,33.122 -12.645,18.68 -24.376,34.083 -29.686,38.978 -8.494,7.83 -20.567,11.76 -27.066,8.81 z m 501.248,-1.082 c -7.688,-3.161 -13.407,-8.016 -21.077,-17.891 -9.322,-12.003 -26.49,-37.116 -28.697,-41.979 -2.145,-4.724 -2.565,-13.66 -0.871,-18.519 3.327,-9.545 12.606,-2.263 37.344,29.31 10.782,13.761 18.984,22 26.072,26.185 8.566,5.06 13.5,9.197 13.5,11.321 0,2.73 -5.997,10.022 -9.984,12.142 -4.638,2.465 -9.307,2.302 -16.287,-0.569 z m -611.229,-16.1 c -35.127,-1.898 -45.12,-3.612 -68,-11.663 -19.823,-6.976 -39.5,-17.653 -39.5,-21.435 0,-1.163 11.99,-1.381 75.845,-1.381 h 75.845 l 5.905,3.82 c 7.762,5.021 14.51,12.668 18.871,21.385 5.826,11.645 7.475,10.817 -21.216,10.657 -13.613,-0.077 -35.1,-0.698 -47.75,-1.382 z m 663.5,0.243 c 0,-0.703 1.572,-4.558 3.493,-8.567 3.813,-7.957 11.931,-17.26 19.348,-22.173 l 4.502,-2.982 h 154.031 l -2.918,3.046 c -3.714,3.876 -16.13,11.053 -25.614,14.807 -19.748,7.816 -36.697,12.206 -54.342,14.078 -28.326,3.004 -98.5,4.28 -98.5,1.79 z m -580.854,-9.253 c -3.09,-2.6 -9.118,-11.816 -9.136,-13.969 -0.005,-0.55 2.354,-2.303 5.241,-3.895 6.215,-3.428 22.038,-14.471 33.249,-23.205 8.785,-6.843 13.293,-11.341 18.894,-18.85 4.32,-5.792 12.34,-12.113 16.54,-13.035 1.627,-0.358 3.909,-0.134 5.09,0.498 1.917,1.026 2.071,1.69 1.47,6.317 -1.473,11.35 -8.796,21.63 -32.716,45.926 -16.303,16.56 -23.443,21.813 -30.583,22.5 -4.13,0.396 -5.234,0.082 -8.05,-2.287 z m 557.003,0.998 c -5.722,-2.485 -15.14,-10.703 -28.2,-24.605 -22.262,-23.698 -27.766,-31.757 -28.696,-42.013 -0.505,-5.566 -0.42,-5.835 2.146,-6.81 5.442,-2.07 13.817,3.862 24.315,17.219 5.893,7.497 18.475,17.637 37.891,30.536 7.208,4.788 13.934,9.19 14.947,9.782 1.751,1.022 1.709,1.303 -0.856,5.68 -1.484,2.532 -4.213,6.21 -6.065,8.174 -2.885,3.058 -3.995,3.564 -7.75,3.53 -2.41,-0.02 -5.889,-0.693 -7.732,-1.493 z M 541.227,248.439 c -3.978,-8.773 -4.973,-9.45 -10.823,-7.353 -7.484,2.682 -8.586,2.327 -15.638,-5.044 l -6.423,-6.714 -7.313,-0.393 c -8.113,-0.436 -9.887,-1.448 -12.903,-7.356 -2.079,-4.074 -2.432,-4.242 -12.41,-5.899 -3.85,-0.64 -7.717,-1.79 -8.594,-2.557 -0.877,-0.767 -2.142,-3.842 -2.81,-6.833 -1.36,-6.073 -1.33,-6.054 -11.335,-7.032 -3.707,-0.362 -6.973,-1.035 -7.257,-1.495 -0.284,-0.46 -0.8,-3.542 -1.145,-6.85 l -0.629,-6.012 -7.33,-0.687 c -4.032,-0.377 -8.111,-1.257 -9.066,-1.955 -0.954,-0.698 -2.718,-3.91 -3.919,-7.136 l -2.184,-5.867 -6.08,-0.5 c -3.657,-0.3 -6.716,-1.136 -7.675,-2.095 -0.902,-0.902 -2.05,-4.806 -2.647,-9 -1.472,-10.341 -2.422,-11.545 -9.784,-12.4 l -6.045,-0.701 v -5.82 c 0,-6.484 -0.655,-8.981 -2.357,-8.99 -2.54,-0.012 -8.665,-2.159 -10.016,-3.51 -1.073,-1.073 -1.302,-2.979 -0.896,-7.455 l 0.545,-6.013 -5.888,-2.65 c -6.628,-2.981 -9.388,-5.046 -9.388,-7.021 0,-1.1 6.034,-1.334 33.25,-1.285 l 33.25,0.059 57.5,52.644 57.5,52.644 0.616,6.046 c 0.338,3.326 1.981,12.572 3.65,20.547 3.449,16.474 3.353,21 -0.442,21 -2.038,0 -2.93,-1.06 -5.314,-6.317 z m 205.657,5.65 c -1.476,-1.476 -0.49,-10.004 2.833,-24.474 1.925,-8.385 3.533,-16.846 3.572,-18.802 0.07,-3.4 2.624,-5.889 57.75,-56.28 l 57.678,-52.723 32.691,-0.027 c 22.65,-0.019 32.899,0.31 33.368,1.069 0.996,1.61 -1.601,3.779 -8.728,7.287 l -6.331,3.117 0.296,6.556 c 0.334,7.369 -0.328,8.146 -8.296,9.732 l -4,0.796 -0.84,7.16 -0.839,7.16 -4.66,0.632 c -8.88,1.204 -9.425,1.925 -10.745,14.197 -0.393,3.65 -1.302,6.758 -2.193,7.5 -0.838,0.697 -4.489,1.492 -8.114,1.767 -5.62,0.426 -6.634,0.794 -6.89,2.5 -0.166,1.1 -1.26,4.138 -2.43,6.75 -2.381,5.308 -5.325,6.734 -13.922,6.744 -5.207,0.006 -5.828,0.93 -5.853,8.697 -0.008,2.305 -0.444,4.456 -0.969,4.78 -0.525,0.325 -4.59,1.12 -9.032,1.768 l -8.078,1.178 -1.573,5.541 c -0.866,3.048 -2.212,6.212 -2.993,7.031 -0.791,0.83 -5.054,2.009 -9.636,2.663 -8.602,1.23 -8.423,1.115 -13.06,8.348 -2.167,3.382 -2.494,3.518 -9.735,4.035 -8.159,0.583 -10.813,1.943 -15.023,7.693 -1.328,1.815 -3.922,4.258 -5.764,5.429 l -3.35,2.129 -5.414,-2.245 c -2.979,-1.234 -6.104,-1.98 -6.946,-1.657 -0.842,0.323 -2.229,2.282 -3.081,4.352 -3.66,8.888 -4.573,10.264 -6.807,10.264 -1.22,0 -2.52,-0.3 -2.886,-0.667 z M 334.516,238.796 c -3.947,-2.406 -6.517,-7.151 -6.108,-11.277 0.245,-2.464 0.931,-3.3 3.309,-4.027 6.042,-1.848 18.316,-7.1 31,-13.262 12.92,-6.278 14.88,-7.69 32.732,-23.58 3.702,-3.297 7.977,-6.643 9.5,-7.438 9.632,-5.024 12.754,3.35 5.187,13.917 -5.26,7.345 -35.418,31.525 -50.984,40.877 -9.965,5.986 -11.813,6.75 -16.335,6.746 -3.293,-0.002 -6.235,-0.695 -8.301,-1.956 z m 606.685,-1.835 c -10.689,-6.255 -21.236,-13.674 -34.208,-24.06 -21.773,-17.433 -28.414,-26.348 -24.74,-33.21 2.114,-3.952 7.885,-1.755 17.447,6.64 3.31,2.906 9.167,8.04 13.017,11.41 5.022,4.397 10.673,7.924 20,12.484 15.938,7.793 29.696,13.531 32.443,13.531 1.754,0 2.056,0.626 2.05,4.25 -0.007,4.711 -2.537,9.374 -6.183,11.397 -1.27,0.705 -4.792,1.298 -7.826,1.318 -4.616,0.03 -6.574,-0.584 -12,-3.76 z m -784.984,-6.76 c -3.575,-0.77 -9.655,-3.019 -13.51,-4.996 -8.02,-4.111 -25.645,-16.33 -26.251,-18.199 -0.323,-0.994 18.337,-1.25 91.057,-1.25 h 91.463 l 3.563,4.25 c 1.96,2.337 6.305,7.171 9.658,10.741 4.008,4.268 5.997,7.18 5.808,8.5 -0.285,1.99 -1.004,2.01 -77.788,2.183 -63.216,0.141 -78.698,-0.085 -84,-1.229 z m 822,-0.932 c 0,-1.75 2.744,-5.454 9.25,-12.488 l 9.25,-10.002 91.75,-0.011 c 50.462,-0.006 91.75,0.201 91.75,0.461 0,0.26 -4.826,3.892 -10.725,8.07 -12.057,8.542 -22.226,13.735 -30.074,15.36 -3.581,0.741 -30.576,1.097 -83.25,1.097 h -77.951 z m -662.27,-18.51 c -3.293,-2.591 -5.304,-6.217 -6.252,-11.271 -0.633,-3.374 -0.46,-3.789 1.979,-4.716 1.47,-0.559 4.702,-1.016 7.182,-1.016 10.341,0 37.06,-12.387 51.162,-23.72 8.278,-6.652 18.554,-12.28 22.423,-12.28 3.657,0 3.776,0.112 3.776,3.54 0,4.455 -2.625,9.633 -7.938,15.66 -6.225,7.06 -30.416,24.08 -42.757,30.082 -9.76,4.746 -11.457,5.249 -18.767,5.56 -7.048,0.3 -8.38,0.073 -10.808,-1.839 z m 633.692,-3.89 c -15.9,-7.851 -38.555,-24.572 -44.814,-33.073 -6.919,-9.399 -7.443,-16.04 -1.265,-16.04 3.343,0 6.546,1.86 27.81,16.156 20,13.446 32.754,18.99 47.347,20.58 6.351,0.693 7.031,0.985 7.336,3.143 0.493,3.482 -2.601,10.791 -5.55,13.11 -2.088,1.643 -4.055,2.011 -10.749,2.011 -7.98,0 -8.504,-0.153 -20.115,-5.887 z m -833.07,-11.135 c -9.416,-0.995 -12.791,-2.15 -25.672,-8.783 -11.67,-6.011 -15.68,-9.661 -15.68,-14.272 v -2.923 h 204.987 l 3.1,4.25 c 1.704,2.337 4.149,6.307 5.432,8.82 1.283,2.514 3.95,5.664 5.928,7 2.425,1.64 3.507,3.08 3.324,4.43 -0.269,1.982 -1.072,2.001 -87.271,2.117 -47.85,0.064 -90.217,-0.223 -94.148,-0.639 z m 881.648,-1.396 c 0,-1.672 1.05,-3.068 3.399,-4.52 1.915,-1.183 4.274,-3.946 5.405,-6.331 1.104,-2.327 3.402,-6.144 5.108,-8.481 l 3.1,-4.25 h 206.205 l -0.654,2.75 c -0.36,1.512 -1.46,3.875 -2.445,5.25 -2.67,3.727 -25.198,14.804 -33.618,16.53 -5.772,1.183 -22.75,1.438 -96.75,1.453 l -89.75,0.017 z m -24.797,-10.2 c -6.774,-1.658 -27.24,-11.606 -36.203,-17.597 -3.025,-2.022 -8.785,-6.683 -12.8,-10.357 -7.202,-6.592 -7.295,-6.74 -7,-11.202 0.436,-6.579 2.161,-7.23 9.95,-3.758 13.675,6.098 17.506,8.007 21.587,10.756 7.998,5.388 17.252,8.513 34.616,11.691 9.27,1.697 17.763,3.085 18.875,3.085 1.705,0 1.93,0.462 1.433,2.947 -1.14,5.694 -3.485,9.817 -7.195,12.646 -3.128,2.386 -4.835,2.896 -10.356,3.094 -3.635,0.13 -9.443,-0.457 -12.907,-1.304 z m -673.305,-1.67 c -3.463,-2.333 -7.157,-8.082 -8.272,-12.872 -0.61,-2.62 -0.51,-2.678 6.627,-3.823 28.612,-4.59 38.913,-7.595 48.386,-14.113 4.852,-3.338 25.88,-12.904 28.366,-12.904 2.559,0 3.995,2.136 3.995,5.942 0,3.104 -0.945,4.455 -7.633,10.908 -9.163,8.842 -15.955,13.354 -31.867,21.168 -13.717,6.737 -17.982,7.923 -28.602,7.958 -6.29,0.02 -8.188,-0.37 -11,-2.265 z M 79.717,158.277 c -10.336,-3.063 -16.507,-5.743 -22.124,-9.607 -4.694,-3.23 -8.366,-8.128 -8.372,-11.17 -0.004,-1.663 5.684,-1.74 109.706,-1.5 l 109.71,0.255 2.253,3.343 c 2.598,3.855 6.264,13.168 7.05,17.907 l 0.539,3.25 -95.381,-0.053 -95.381,-0.053 z m 937.5,2.106 c 0,-1.871 5.667,-17.058 7.605,-20.378 l 2.48,-4.25 h 109.957 c 80.131,0 109.958,0.302 109.958,1.114 0,2.893 -4.892,9.256 -9.619,12.512 -2.899,1.997 -10.3,5.342 -16.56,7.486 l -11.321,3.876 -96.25,0.006 c -52.938,0.003 -96.25,-0.162 -96.25,-0.366 z M 294.278,152.79 c -8.815,-4.97 -12.061,-8.965 -12.061,-14.84 v -2.904 l 12.25,-0.558 c 18.862,-0.858 36.39,-5.246 53.584,-13.413 6.325,-3.005 10.354,-4.335 12.5,-4.127 3.024,0.293 3.18,0.523 3.473,5.121 0.441,6.905 -3.05,12.474 -10.752,17.153 -15.585,9.467 -31.373,14.994 -45.907,16.07 -7.202,0.532 -7.965,0.386 -13.087,-2.502 z m 684.052,1.42 c -10.283,-2.23 -15.943,-4.347 -27.403,-10.247 -12.022,-6.188 -16.973,-10.758 -18.73,-17.286 -2.748,-10.202 1.322,-11.994 13.85,-6.097 19.442,9.152 34.39,12.983 54.67,14.014 l 13,0.661 -0.143,3.209 c -0.234,5.246 -3.905,9.94 -10.781,13.786 -7.135,3.99 -12.959,4.456 -24.463,1.96 z m 12.887,-28.089 c -22.127,-5.843 -43.25,-14.247 -44.59,-17.741 -0.27,-0.704 -0.034,-2.482 0.524,-3.952 l 1.016,-2.672 h 80.32 l -0.508,7.089 c -0.587,8.215 -3.846,13.92 -9.745,17.058 -4.323,2.299 -18.699,2.415 -27.016,0.219 z m 41.007,0.426 c 0,-0.71 2.817,-6.466 6.25,-12.791 l 6.243,-11.5 111.75,-0.254 c 91.362,-0.208 111.75,-0.017 111.75,1.05 0,2.346 -9.64,12.128 -15.298,15.525 -3.043,1.826 -8.833,4.526 -12.867,6 l -7.335,2.679 -100.25,0.29 c -81.368,0.236 -100.249,0.048 -100.243,-1 z M 59.499,125.219 c -9.256,-2.493 -19.275,-8.27 -25.994,-14.99 -3.458,-3.458 -6.288,-6.781 -6.288,-7.385 0,-0.79 31.318,-1.026 112.25,-0.842 l 112.25,0.254 6.309,12.25 6.309,12.25 -99.81,-0.066 C 82.086,126.636 63.809,126.38 59.499,125.219 Z m 215.75,-1.089 c -4.3,-3.62 -6.945,-9.245 -7.689,-16.362 l -0.628,-6.012 h 40.536 c 36.04,0 40.602,0.175 41.142,1.582 1.178,3.07 0.579,5.295 -1.964,7.295 -3.237,2.546 -17.397,7.99 -32.737,12.585 -10.64,3.188 -12.981,3.538 -23.673,3.538 -11.35,0 -12.001,-0.114 -14.986,-2.626 z M 253.194,87.48 c -3.588,-1.223 -9.438,-4.311 -13,-6.863 -7.547,-5.404 -18.935,-16.932 -21.35,-21.611 l -1.678,-3.25 h 116.86 l 3.132,5.549 c 3.5,6.2 15.95,19.717 22.067,23.957 2.196,1.521 3.992,3.155 3.992,3.63 0,0.475 -23.288,0.852 -51.75,0.838 -50.833,-0.025 -51.866,-0.065 -58.273,-2.25 z m 682.023,-0.45 c 7.338,-5.521 20.574,-19.892 23.506,-25.522 l 2.994,-5.747 58.25,-0.003 c 48.235,-0.002 58.25,0.23 58.25,1.348 0,3.828 -14.838,19.012 -24.814,25.394 -11.627,7.437 -9.945,7.261 -68.911,7.209 l -52.775,-0.047 z m -884,0.233 C 31.537,83.312 13.661,70.633 10.677,58.506 L 10,55.756 h 188.147 l 3.673,3.225 c 2.02,1.773 6.736,6.892 10.48,11.375 3.745,4.483 9.52,10.12 12.834,12.526 3.314,2.406 6.038,4.711 6.054,5.124 0.016,0.412 -39.009,0.708 -86.721,0.656 -67.051,-0.073 -88.226,-0.39 -93.25,-1.399 z m 1015.398,-0.794 c 6.443,-4.92 12.498,-10.402 15.147,-13.713 1.54,-1.925 5.747,-6.538 9.35,-10.25 l 6.551,-6.75 h 187.554 v 2.099 c 0,9.165 -16.019,22.23 -35,28.546 -5.146,1.713 -11.321,1.845 -96,2.056 l -90.5,0.225 z M 626.217,35.756 c -3.774,-3.774 -1.316,-9.451 4.586,-10.59 5.42,-1.045 9.17,5.262 6.001,10.097 -2.086,3.184 -7.638,3.442 -10.587,0.493 z"
         id="path1" /><path
         d="m 627.99,833.04 c -2.97,-4.71 1.16,-31.959 1.662,-37.226 1.53,-16.1 2.798,-30.038 3.327,-30.062 11.666,-0.54 22.076,-0.046 33.124,0.055 0.205,0.002 0.466,0.07 0.639,0.27 l 3.985,32.372 c 3.058,20.88 3.686,33.267 3.117,34.387 -0.807,1.587 -2.953,2.237 -22.193,2.208 -13.516,-0.021 -22.07,-0.627 -23.66,-2.003 z m 10.63,-7.028 c 3.34,-7.993 2.564,-25.124 -1.313,-29.001 -1.435,-1.435 -1.765,-1.388 -3.68,0.524 -1.842,1.84 -2.144,3.505 -2.435,13.412 -0.25,8.5 0.049,12.22 1.2,14.975 1.946,4.658 4.305,4.692 6.228,0.09 z m 15.286,-0.94 c 1.694,-4.889 1.842,-18.51 0.262,-24.134 -1.7,-6.044 -4.413,-6.556 -7.167,-1.352 -2.09,3.945 -1.818,22.639 0.388,26.812 2.285,4.323 4.732,3.825 6.517,-1.326 z m 13.82,0.764 c 3.186,-7.472 1.682,-28.122 -2.156,-29.594 -5.223,-2.188 -6.421,18.946 -3.976,30.094 1.765,4.32 4.16,4.124 6.132,-0.5 z m -59.834,5.742 c -2.23,-1.178 -3.883,-2.917 -4.28,-4.502 -0.68,-2.702 -0.104,-4.49 1.442,-4.49 0.502,0 2.857,-1.372 5.235,-3.048 2.643,-1.862 4.963,-2.802 5.969,-2.416 3.548,1.361 3.345,13.548 -0.258,15.477 -2.552,1.365 -3.917,1.194 -8.108,-1.021 z m 74.003,-0.242 c -0.431,-4.18 0.496,-11.454 1.608,-12.608 1.094,-1.136 2.182,-0.666 6.665,2.877 6.88,5.44 6.916,7.13 0.175,8.46 -2.85,0.561 -5.512,1.358 -5.916,1.77 -1.123,1.145 -2.388,0.896 -2.532,-0.5 z m 16.116,-9.378 c -8.306,-5.492 -13.987,-11.332 -13.987,-14.38 0,-2.413 0.907,-2.922 13.25,-7.435 25.738,-9.41 33.303,-12.56 38.25,-15.93 6.903,-4.702 10.712,-8.91 9.924,-10.965 -0.964,-2.512 -4.226,-2.024 -12.287,1.84 -10.64,5.098 -22.915,9.234 -37.297,12.565 -6.964,1.613 -13.151,2.933 -13.75,2.933 -1.36,0 -1.407,-6.317 -0.083,-11.086 0.548,-1.971 2.752,-5.487 4.899,-7.812 2.146,-2.325 4.958,-6.666 6.248,-9.648 1.29,-2.98 2.663,-5.428 3.05,-5.437 0.872,-0.021 2.783,6.674 2.79,9.778 0.004,1.263 1.11,3.4 2.46,4.75 3.432,3.431 12.197,3.548 15.255,0.205 3.707,-4.055 5.147,-8.262 5.868,-17.144 0.756,-9.317 1.917,-11.606 5.888,-11.606 3.073,0 3.835,2.346 2.106,6.484 -0.775,1.855 -1.72,5.856 -2.098,8.891 -0.645,5.16 -0.51,5.685 2.065,8.072 2.314,2.144 3.71,2.553 8.726,2.553 5.579,0 6.22,-0.25 9.762,-3.791 3.074,-3.074 4.028,-4.997 5.045,-10.162 0.69,-3.504 2.08,-7.198 3.09,-8.21 3.875,-3.873 13.853,-1.175 19.213,5.196 3.377,4.012 3.459,9.637 0.242,16.546 -3.85,8.267 -6.17,9.495 -17.347,9.183 -8.86,-0.246 -9.545,-0.12 -11.35,2.098 -1.256,1.547 -1.92,3.91 -1.92,6.85 0,3.773 0.544,5.033 3.4,7.89 1.87,1.87 4.144,3.4 5.05,3.4 1.328,0 7.06,2.41 8.35,3.509 0.164,0.14 -10e-4,1.448 -0.367,2.908 -1.3,5.178 -10.2,7.308 -15.318,3.664 -7.543,-5.372 -27.352,-8.688 -34.364,-5.753 -3.277,1.372 -3.75,1.993 -3.75,4.926 0,1.847 0.946,6.157 2.1,9.578 2.486,7.358 1.699,9.168 -3.986,9.168 -2.51,0 -5.344,-1.127 -9.127,-3.628 z m -115.98,0.137 c -1.387,-1.672 -0.976,-4.921 1.445,-11.409 2.025,-5.426 1.288,-9.368 -2.278,-12.195 -4.483,-3.553 -12.45,-2.292 -24.858,3.936 -9.92,4.979 -10.274,5.074 -13.61,3.68 -2.102,-0.878 -3.9,-2.573 -4.65,-4.386 -1.403,-3.389 -0.898,-4.704 4.547,-11.837 2.024,-2.653 3.397,-5.601 3.397,-7.297 0,-2.486 -0.778,-3.234 -6.16,-5.923 -3.387,-1.693 -7.405,-3.078 -8.928,-3.078 -1.77,0 -4.057,-1.215 -6.34,-3.368 -3.288,-3.101 -3.572,-3.823 -3.572,-9.1 0,-10.093 4.657,-15.532 13.298,-15.532 3.486,0 5.705,1.874 10.777,9.102 1.255,1.788 2.784,2.332 7.512,2.674 7.534,0.545 9.932,-1.206 12.824,-9.363 2.018,-5.69 2.23,-5.913 5.593,-5.913 3.432,0 3.518,0.102 4.648,5.5 2.532,12.083 5.358,21.536 7.162,23.953 4.34,5.811 15.176,6.445 17.897,1.047 0.693,-1.375 1.266,-5.102 1.275,-8.282 0.018,-7.301 1.756,-8.33 6.427,-3.803 5.102,4.945 7.403,10.584 8.414,20.617 0.497,4.932 0.61,9.298 0.254,9.702 -1.08,1.222 -26.84,-6.035 -38.58,-10.868 -17.75,-7.307 -19.055,-7.751 -20.802,-7.08 -2.848,1.092 -0.85,3.425 7.559,8.818 10.108,6.484 19.415,10.849 37.242,17.466 13.607,5.051 14.009,5.284 14.312,8.29 0.26,2.587 -0.232,3.425 -3,5.114 -1.821,1.111 -4.845,2.31 -6.718,2.663 -1.874,0.354 -5.886,2.38 -8.916,4.503 -4.502,3.154 -6.371,3.86 -10.221,3.86 -2.955,0 -5.173,-0.556 -5.95,-1.491 z m 141.993,-2.266 c 0,-1.516 -0.418,-4.216 -0.93,-6 -0.71,-2.475 -0.621,-3.243 0.374,-3.243 1.533,0 10.294,4.767 11.07,6.024 0.564,0.91 -7.363,5.976 -9.352,5.976 -0.64,0 -1.162,-1.24 -1.162,-2.757 z m -161.092,-5.117 -2.314,-1.874 3.126,-3.126 c 2.147,-2.147 4.09,-3.126 6.203,-3.126 3.77,0 3.886,1.345 0.54,6.268 -2.86,4.21 -4.234,4.547 -7.555,1.858 z m -47.615,-27.528 c -5.386,-4.07 -11.078,-8.757 -12.648,-10.415 l -2.856,-3.013 5.356,-0.665 c 5.07,-0.63 5.873,-0.395 15.114,4.415 5.368,2.794 10.43,5.08 11.25,5.08 0.82,0 1.49,0.216 1.49,0.48 0,0.742 -7.004,11.52 -7.487,11.52 -0.234,0 -4.833,-3.33 -10.22,-7.402 z m 251.207,3.233 c -7.077,-2.78 -8.095,-4.21 -2.5,-3.517 2.475,0.307 5.42,0.84 6.545,1.185 2.442,0.749 10.116,-6.457 16.046,-15.067 l 3.742,-5.432 h 6.834 c 4.789,0 6.833,0.373 6.833,1.246 0,1.769 -14.852,15.927 -21.172,20.184 -6.055,4.078 -8.893,4.321 -16.328,1.401 z m -177.613,-24.99 c -2.931,-4.117 -3.335,-12.48 -0.685,-14.18 2.342,-1.5 3.047,-0.466 3.266,4.793 0.11,2.674 0.903,5.298 1.948,6.452 0.968,1.07 1.602,2.76 1.41,3.758 -0.588,3.053 -3.462,2.655 -5.94,-0.823 z m -102.137,-1.496 c -3.906,-1.098 -1.208,-5.595 3.583,-5.972 5.016,-0.395 10.316,-2.849 11.687,-5.41 2.387,-4.46 -1.695,-13.692 -7.366,-16.665 -2.216,-1.161 -6.575,-1.779 -14.654,-2.075 -13.16,-0.484 -16.312,-1.687 -15.81,-6.036 0.255,-2.204 1.56,-3.33 7.269,-6.266 7.6,-3.91 9.813,-7.027 8.815,-12.421 -1.484,-8.016 -6.171,-10.398 -25.58,-12.996 -3.998,-0.536 -5.135,-1.18 -6.747,-3.824 -1.095,-1.795 -1.94,-4.99 -1.943,-7.336 l -0.004,-4.155 7.836,0.537 c 9.763,0.67 14.604,-0.742 16.745,-4.883 2.32,-4.487 0.952,-8.57 -4.714,-14.063 -4.426,-4.291 -4.867,-5.133 -4.867,-9.295 0,-3.525 0.564,-5.14 2.455,-7.03 2.136,-2.137 3.357,-2.455 9.427,-2.455 6.306,0 7.167,0.247 9.004,2.582 2.024,2.572 2.073,4.821 0.253,11.418 -1.83,6.629 2.4,13 8.63,13 3.934,0 11.049,-1.83 13.054,-3.359 0.728,-0.554 2.244,-2.813 3.37,-5.02 1.924,-3.77 2.13,-3.899 3.427,-2.126 2.81,3.844 1.708,7.202 -4.585,13.967 -6.64,7.138 -7.475,9.217 -6.83,17.012 0.323,3.874 1.224,6.4 3.22,9.016 5.3,6.95 10.187,6.661 15.635,-0.924 1.803,-2.511 3.838,-4.566 4.52,-4.566 1.228,0 6.422,5.525 6.418,6.826 0,0.37 -1.064,5.061 -2.361,10.424 -3.536,14.614 -2.23,17.523 8.29,18.477 3.34,0.303 6.073,0.922 6.073,1.376 0,1.256 -3.568,2.897 -6.3,2.897 -1.34,0 -4.764,0.968 -7.612,2.152 l -5.18,2.152 -3.461,-3.356 c -4.388,-4.253 -11.393,-15.139 -19.533,-30.354 -3.503,-6.549 -6.974,-12.511 -7.713,-13.25 -1.692,-1.693 -5.892,-1.754 -6.47,-0.094 -1.337,3.832 5.236,18.23 16.91,37.043 9.189,14.806 11.359,18.971 11.359,21.799 0,3.766 -4.063,9.05 -8.41,10.937 -4.203,1.823 -14.727,3.19 -17.84,2.316 z m 219.739,-2.595 c -0.247,-0.688 -0.115,-3.5 0.293,-6.25 0.663,-4.461 1.01,-5 3.23,-5 2.328,0 2.478,0.309 2.322,4.796 -0.09,2.638 -0.708,5.45 -1.372,6.25 -1.48,1.784 -3.867,1.892 -4.473,0.204 z m 82.788,-5.723 c -5.785,-3.527 -5.722,-11.229 0.163,-20.027 5.6,-8.375 23.702,-45.018 23.36,-47.292 -0.164,-1.102 -1.06,-2.481 -1.991,-3.064 -2.286,-1.433 -5.27,1.31 -8.684,7.985 -3.2,6.253 -10.568,18.346 -18.686,30.67 l -6.062,9.2 -6.5,0.292 c -8.391,0.376 -10.9,-1.441 -13.785,-9.986 -2.957,-8.757 -2.817,-9.805 1.314,-9.805 2.427,0 4.608,1.005 7.594,3.5 3.338,2.788 5.034,3.493 8.345,3.468 11.7,-0.09 14.64,-15.404 4.45,-23.176 -4.374,-3.336 -6.6,-8.117 -4.794,-10.293 1.917,-2.31 4.9,-1.793 8.652,1.5 2.825,2.48 4.286,3 8.43,3 4.136,0 5.442,-0.462 7.465,-2.645 4.36,-4.706 2.505,-11.434 -5.486,-19.883 -6.766,-7.154 -9.027,-15.396 -4.68,-17.064 0.784,-0.301 4.443,0.66 8.13,2.134 8.806,3.523 10.513,2.802 13.367,-5.647 3.156,-9.347 5.024,-10.894 13.148,-10.894 5.295,0 7.38,0.472 10.075,2.283 2.905,1.952 3.44,2.931 3.68,6.75 0.236,3.725 -0.32,5.376 -3.34,9.941 -4.554,6.883 -6.442,10.517 -6.442,12.405 0,5.075 9.57,6.272 16.852,2.109 4.818,-2.754 7.147,-3.09 8.948,-1.288 1.622,1.622 1.517,7.287 -0.197,10.602 -2.643,5.11 -4.49,5.946 -14.103,6.383 -13.824,0.628 -19.991,4.604 -21.208,13.674 -0.434,3.242 -0.136,4.656 1.324,6.271 1.736,1.922 2.566,2.033 10.565,1.408 7.946,-0.62 8.855,-0.502 10.75,1.392 2.049,2.049 2.755,7.12 1.46,10.493 -1.17,3.047 -6.948,4.876 -13.158,4.165 -3.153,-0.361 -9.783,-0.912 -14.733,-1.224 -8.176,-0.516 -9.248,-0.37 -11.715,1.58 -1.494,1.18 -3.18,3.814 -3.745,5.851 -3.05,10.982 0.254,16.414 10.703,17.596 7.146,0.809 9.825,2.68 8.195,5.726 -1.597,2.983 -5.137,3.883 -15.253,3.879 -7.366,-0.003 -9.823,-0.393 -12.408,-1.969 z m -48.596,-4.777 c 0.396,-1.513 0.607,-4.325 0.469,-6.25 -0.138,-1.925 -0.341,-6.425 -0.45,-10 l -0.2,-6.5 3.395,-0.325 c 3.6,-0.343 5.056,0.89 5.1,4.325 0.035,2.56 -7.243,21.486 -8.264,21.494 -0.423,0.003 -0.445,-1.232 -0.05,-2.744 z m -265.014,-0.917 c -0.367,-0.367 -0.667,-1.77 -0.667,-3.12 0,-2.38 0.18,-2.44 5.98,-2.021 7.18,0.52 8.29,1.356 5.16,3.894 -2.29,1.856 -9.058,2.662 -10.473,1.247 z m 75.94,-5.915 c -0.978,-2.548 -0.697,-11.38 0.428,-13.484 1.334,-2.493 5.918,-2.631 6.084,-0.184 0.204,3.011 -0.17,4.593 -2.36,10 -2.226,5.495 -3.14,6.303 -4.152,3.668 z m 267.893,-4.136 c -8.632,-2.636 -10.34,-3.42 -10.96,-5.041 -0.98,-2.552 1.07,-3.622 7.749,-4.047 7.44,-0.474 13.71,1.62 13.71,4.58 0,1.652 -3.908,6.384 -5.063,6.13 -0.24,-0.053 -2.686,-0.783 -5.436,-1.622 z m -283.27,-21.453 c -1.77,-1.769 -1.514,-5.783 0.415,-6.523 2.028,-0.778 4.547,2.37 4.143,5.176 -0.34,2.357 -2.816,3.089 -4.56,1.347 z m -81.7,-4.143 c -0.926,-1.414 -1.537,-3.61 -1.357,-4.879 0.378,-2.664 2.112,-2.686 10.55,-0.131 3.416,1.033 5.438,2.255 5.842,3.528 0.86,2.71 0.392,2.95 -6.902,3.535 -6.088,0.488 -6.543,0.374 -8.133,-2.053 z m 312.06,-7.763 c -2.755,-3.273 -2.937,-3.855 -1.983,-6.342 1.533,-3.994 7.83,0.354 9.003,6.217 0.586,2.929 0.424,3.202 -1.896,3.202 -1.604,0 -3.487,-1.13 -5.125,-3.077 z m 61.415,-7.9 c -1.282,-0.81 -1.211,-1.159 0.5,-2.452 2.736,-2.068 6.838,-2.745 14.416,-2.38 6.757,0.325 8.274,1.47 5.552,4.193 -1.242,1.242 -3.621,1.612 -10.294,1.6 -4.773,-0.008 -9.352,-0.44 -10.174,-0.96 z m -319.678,-7.614 c -1.387,-3.616 5.779,-12.698 8.63,-10.937 1.32,0.817 1.374,4.528 0.064,4.528 -0.54,0 -1.898,1.8 -3.02,4 -2.108,4.13 -4.606,5.191 -5.674,2.409 z m 271.536,-14.603 c -2.298,-3.227 -1.75,-5.99 1.31,-6.594 2.678,-0.529 6.967,3.765 6.633,6.637 -0.47,4.02 -5.07,3.995 -7.943,-0.043 z m -336.15,-7.817 c -4.092,-3.22 -5.845,-9.262 -5.507,-18.989 0.35,-10.062 1.597,-11.04 7.353,-5.766 3.423,3.137 3.718,3.879 4.428,11.126 0.629,6.426 1.213,8.239 3.387,10.507 3.863,4.033 3.384,5.133 -2.24,5.133 -3.36,0 -5.655,-0.623 -7.42,-2.011 z m 401.32,-10.74 c 0.017,-0.412 0.692,-1.623 1.5,-2.69 0.827,-1.095 1.467,-4.082 1.467,-6.85 0,-5.862 2.164,-10.828 6.196,-14.22 3.763,-3.167 6.534,-3.176 7.97,-0.026 1.1,2.416 0.583,5.694 -3.282,20.787 l -0.96,3.75 h -6.462 c -3.554,0 -6.447,-0.338 -6.43,-0.75 z M 493.024,655.02 c 0,-2.354 1.77,-5.243 7.777,-12.684 6.26,-7.756 8.223,-8.487 8.223,-3.062 0,4.37 -2.552,8.344 -8.71,13.562 -4.697,3.979 -7.29,4.756 -7.29,2.184 z m 299.223,-11.991 c -1.565,-1.096 -2.223,-2.575 -2.223,-5 0,-3.141 0.257,-3.443 2.932,-3.443 3.274,0 7.068,4.243 7.068,7.904 0,1.625 -0.624,2.096 -2.777,2.096 -1.528,0 -3.778,-0.7 -5,-1.557 z m -345.738,-8.546 c -7.913,-4.174 -11.148,-8.873 -9.386,-13.635 0.58,-1.568 2.016,-2.228 6.056,-2.784 10.128,-1.393 14.859,-10.024 9.926,-18.113 -1.22,-2.002 -3.534,-3.755 -6.398,-4.849 -3.747,-1.43 -4.75,-2.403 -6.084,-5.898 -0.88,-2.302 -1.6,-5.408 -1.6,-6.902 0,-2.645 0.154,-2.716 5.846,-2.716 3.215,0 8.495,0.874 11.734,1.943 5.542,1.828 6,1.843 7.77,0.25 5.147,-4.634 4.056,-10.322 -4.08,-21.268 -6.69,-9.001 -8.644,-13.3 -7.852,-17.26 0.873,-4.362 2.383,-5.665 6.562,-5.665 2.696,0 4.955,0.932 8.127,3.354 5.67,4.328 8.328,5.123 12.015,3.596 3.24,-1.343 5.254,-4.507 6.33,-9.95 1.54,-7.793 2.629,-10 4.93,-10 6.263,0 21.62,12.02 21.62,16.922 0,1.105 -1.35,3.39 -3,5.078 -2.33,2.383 -3,3.97 -3,7.1 0,2.217 0.49,4.95 1.093,6.074 1.008,1.885 1.678,1.988 8.63,1.337 7.638,-0.716 9.218,-0.17 9.26,3.203 0.029,2.227 -7.231,6.286 -11.244,6.286 -4.474,0 -15.178,5.082 -16.702,7.93 -3.027,5.655 0.01,13.405 5.952,15.185 2.188,0.655 4.72,2.011 5.626,3.013 1.53,1.69 1.53,2 -0.002,4.338 -0.907,1.385 -3.875,3.646 -6.595,5.024 -6.734,3.413 -12.02,8.22 -12.02,10.933 0,1.22 1.368,3.747 3.038,5.617 3.654,4.094 4.595,7.278 3.112,10.533 -0.936,2.053 -1.81,2.427 -5.667,2.427 -2.603,0 -6.262,-0.868 -8.522,-2.02 -3.852,-1.966 -3.96,-2.163 -3.956,-7.25 0.006,-7.329 2.64,-22.755 5.502,-32.23 3.918,-12.967 4.539,-16.755 3.413,-20.83 -0.72,-2.61 -1.57,-3.67 -2.943,-3.67 -3.553,0 -3.775,0.576 -14.453,37.5 -7.578,26.202 -9.294,29.5 -15.356,29.5 -2.033,0 -5.49,-0.946 -7.682,-2.103 z m 387.326,-3.647 c -1.411,-1.513 -3.044,-3.683 -3.628,-4.824 -1.73,-3.372 -7.106,-25.71 -8.093,-33.616 -0.501,-4.02 -2.302,-11.055 -4,-15.633 -1.7,-4.577 -3.09,-9.124 -3.09,-10.104 0,-2.517 -4.693,-7.281 -6.766,-6.868 -1.367,0.272 -1.662,1.183 -1.397,4.32 0.325,3.855 8.672,55.87 9.637,60.054 0.37,1.606 -0.4,2.573 -3.383,4.25 -4.273,2.402 -8.09,2.753 -11.405,1.048 -3.001,-1.541 -7.685,-6.015 -7.685,-7.34 0,-0.6 1.913,-1.977 4.25,-3.063 3.752,-1.743 4.286,-2.41 4.558,-5.682 0.449,-5.406 -1.096,-7.409 -8.654,-11.215 -7.477,-3.765 -9.487,-5.608 -8.981,-8.235 0.379,-1.966 3.516,-3.094 9.022,-3.243 2.346,-0.063 4.71,-0.973 6.477,-2.493 5.08,-4.37 2.987,-13.991 -3.762,-17.281 -1.325,-0.646 -6.664,-1.646 -11.863,-2.222 -8.295,-0.92 -9.796,-1.39 -12.255,-3.85 -1.54,-1.54 -3.207,-4.214 -3.702,-5.94 -1.434,-5 0.63,-6.917 8.966,-8.323 6.189,-1.044 7.194,-1.518 8.063,-3.802 1.422,-3.74 0.555,-6.019 -4.578,-12.032 -2.497,-2.926 -4.54,-6.227 -4.54,-7.337 0,-2.739 4.983,-7.193 11.494,-10.274 9.678,-4.578 22.633,-2.87 24.152,3.185 0.57,2.27 0.074,7.597 -1.15,12.35 -0.393,1.526 -0.04,4.08 0.868,6.25 1.387,3.32 1.898,3.67 5.362,3.67 4.846,0 7.81,-2.066 9.258,-6.453 1.266,-3.836 7.147,-9.556 9.8,-9.532 3.762,0.034 6.215,3.857 6.215,9.685 0,3.785 -1.196,6.182 -11.355,22.74 -3.887,6.338 -4.284,8.427 -2.547,13.41 0.966,2.772 1.544,3.15 4.822,3.15 2.582,0 4.928,-0.912 7.652,-2.972 4.865,-3.682 9.63,-4.005 11.872,-0.806 3.526,5.035 1.223,11.002 -8.122,21.046 -7.268,7.812 -10.05,16.008 -6.89,20.29 1.25,1.693 2.692,1.942 11.25,1.942 9.759,0 9.818,0.014 9.818,2.456 0,1.79 -1.626,3.785 -6,7.36 -11.803,9.644 -15.258,10.686 -19.69,5.934 z M 500.195,617.41 c 0.242,-1.708 1.08,-2.41 3.159,-2.648 2.46,-0.282 2.786,-0.021 2.5,2 -0.242,1.708 -1.08,2.41 -3.16,2.648 -2.46,0.282 -2.785,0.02 -2.5,-2 z m -61.123,-10.273 c -2.59,-2.757 -2.163,-5.551 0.848,-5.551 2.09,0 6.104,4.363 6.104,6.635 0,2.247 -4.478,1.55 -6.952,-1.084 z m 405.952,-0.975 c 0,-3.818 10.054,-11.537 13.37,-10.265 2.19,0.841 2.113,5.96 -0.12,7.893 -1.56,1.348 -9.42,3.796 -12.193,3.796 -0.581,0 -1.057,-0.64 -1.057,-1.424 z M 507.596,587.014 c -2.094,-2.093 -1.997,-5.36 0.178,-6.033 0.963,-0.298 3.1,-1.098 4.75,-1.778 5.348,-2.205 7.806,-0.183 5.88,4.838 -0.681,1.773 -5.412,4.545 -7.76,4.545 -0.812,0 -2.184,-0.707 -3.05,-1.572 z m 274.703,-4.237 c -0.674,-0.428 -1.35,-1.884 -1.5,-3.235 -0.25,-2.232 0.12,-2.485 4.05,-2.767 2.377,-0.172 4.965,0.221 5.75,0.872 1.9,1.578 1.813,4.576 -0.157,5.332 -2.197,0.843 -6.673,0.732 -8.143,-0.202 z M 449.027,571.969 c -3.362,-3.038 -4.003,-4.237 -4.003,-7.5 0,-3.611 0.202,-3.883 2.878,-3.883 3.274,0 4.129,0.833 7.655,7.465 1.962,3.691 2.27,5.067 1.376,6.145 -1.806,2.175 -3.59,1.673 -7.906,-2.227 z m 389.997,-9.905 c 0,-0.287 1.185,-2.312 2.633,-4.5 2.58,-3.897 5.77,-5.21 6.637,-2.728 0.768,2.203 -0.423,3.787 -4.353,5.792 -4.001,2.041 -4.917,2.309 -4.917,1.436 z M 520.427,551.192 c -0.876,-2.281 1.038,-4.227 6.03,-6.134 5.564,-2.125 9.968,-1.664 10.36,1.083 0.49,3.418 -3.21,5.775 -9.816,6.253 -4.84,0.35 -6.065,0.126 -6.574,-1.202 z m 235.442,-9.648 c -4.24,-4.459 -4.86,-7.345 -1.91,-8.923 4.676,-2.503 12.333,-0.112 18.315,5.716 2.063,2.01 3.75,3.923 3.75,4.25 0,1.221 -6.803,2.999 -11.476,2.999 -4.347,0 -5.22,-0.407 -8.68,-4.042 z m -230.16,-6.354 c -5.155,-1.91 -7.688,-4.391 -7.667,-7.51 0.013,-2.03 3.116,-5.531 14.25,-16.084 24.299,-23.032 27.637,-26.738 26.189,-29.08 -1.273,-2.06 -8.46,-0.262 -13.835,3.462 -2.817,1.951 -10.972,9.242 -18.122,16.2 -14.193,13.815 -17.613,16.398 -21.715,16.404 -3.507,0.005 -4.382,-1.744 -6.26,-12.516 -2.856,-16.374 -1.74,-25.115 3.692,-28.92 3.517,-2.463 6.708,-1.858 12.19,2.314 7.2,5.478 8.774,6.126 14.88,6.126 7.057,0 11.822,-3 13.136,-8.268 0.764,-3.064 0.357,-5.507 -2.365,-14.197 -4.48,-14.303 -3.297,-16.623 6.24,-12.256 3.72,1.703 6.093,3.617 7.693,6.206 3.545,5.735 11.36,8.135 17.453,5.358 2.235,-1.018 2.83,-0.84 4.99,1.49 2.813,3.036 5.278,2.665 6.18,-0.93 0.328,-1.307 0.099,-7.469 -0.51,-13.693 -0.606,-6.224 -1.104,-13.39 -1.104,-15.925 0,-4.565 -0.037,-4.616 -3.831,-5.257 -3.724,-0.629 -9.59,0.981 -14.67,4.027 -7.177,4.305 -13.997,7.467 -15.15,7.025 -2.222,-0.853 -1.648,-7.706 0.906,-10.803 2.067,-2.506 18.106,-11.896 30.413,-17.805 l 5.149,-2.472 0.342,-9.147 c 0.369,-9.887 2,-13.369 6.246,-13.338 4.023,0.03 4.846,1.566 6.233,11.63 0.956,6.934 1.86,10.225 3.05,11.105 1.08,0.796 9.659,1.769 15.614,3.23 15.055,3.696 22.334,6.682 22.739,8.95 0.637,3.565 -6.5,4.822 -19.77,1.89 -10.278,-2.27 -13.696,-0.968 -15.818,0.519 -4.058,2.843 -5.251,8.517 -7.262,20.301 -2.51,14.705 -3.58,22.842 1.118,22.17 3.326,-0.475 4.497,-4.261 5.2,-16.81 1.566,-7.686 4,-15.622 7.64,-17.197 9.403,-4.656 11.489,33.733 12.834,43.822 0.023,13.588 -0.587,16.162 -4.378,18.474 -3.916,2.388 -15.311,2.621 -19.603,0.402 -2.652,-1.372 -8.002,-7.285 -8.002,-8.846 0,-0.36 4.256,-0.655 9.458,-0.655 14.693,3.008 19.773,-8.343 14.662,-23.25 -0.59,-1.513 -1.46,-2.75 -1.934,-2.75 -1.29,0 -3.186,4.7 -3.186,7.898 0,4.121 -1.948,9.004 -4.04,10.123 -1.005,0.538 -4.67,0.99 -8.144,1.003 -12.038,0.045 -17.816,2.844 -17.816,8.632 0,2.434 1.31,4.008 8.385,10.076 4.745,4.07 4.424,6.118 -1.411,9.016 l -4.526,2.248 -7.211,-1.998 c -9.01,-2.497 -21.03,-2.665 -25.88,-0.363 -3.526,1.673 -6.357,5.763 -6.357,9.186 0,1.785 4.867,7.216 9.5,10.6 2.666,1.948 1.316,4.138 -4.953,8.038 -5.647,3.512 -14.67,4.44 -20.863,2.145 z m -57.102,-5.032 c -3.687,-3.156 -3.847,-3.52 -2.723,-6.212 1.696,-4.064 16.355,-25.462 18.27,-26.67 0.88,-0.555 2.395,-0.703 3.37,-0.329 1.516,0.582 1.698,1.59 1.263,7.007 -0.656,8.177 -2.246,11.276 -7.763,15.137 -2.913,2.04 -4.595,4.004 -4.77,5.572 -1.132,10.172 -1.703,10.582 -7.647,5.495 z m 351.105,-1.218 c -0.378,-0.378 -0.688,-2.833 -0.688,-5.456 0,-6.692 -1.063,-8.848 -7.477,-15.16 -5.597,-5.509 -5.632,-5.58 -5.328,-10.892 0.28,-4.894 0.52,-5.371 2.86,-5.644 1.475,-0.172 3.705,0.607 5.276,1.843 3.308,2.602 10.132,12.485 12.827,18.578 l 1.974,4.463 -3.37,6.142 c -3.324,6.058 -4.727,7.473 -6.074,6.126 z m -76.81,-3.253 c -2.324,-1.881 -2.33,-1.931 -0.578,-5.604 2.464,-5.168 3.217,-11.836 1.738,-15.406 -1.307,-3.155 -5.193,-5.091 -10.22,-5.091 -3.51,0 -9.818,2.514 -9.818,3.913 0,1.742 3.676,3.087 8.435,3.087 4.22,0 4.565,0.191 4.565,2.535 0,3.9 -2.808,7.467 -5.865,7.45 -3.354,-0.02 -4.866,-1 -7.01,-4.544 -1.557,-2.575 -2.192,-2.824 -6.673,-2.625 -3.63,0.161 -6.02,-0.393 -8.952,-2.075 -5.687,-3.264 -5.586,-5.391 0.578,-12.136 4.318,-4.724 5.198,-6.326 5.284,-9.618 0.064,-2.461 -0.522,-4.576 -1.555,-5.609 -1.775,-1.776 -2.31,-1.802 -16.807,-0.833 -8.794,0.588 -9.667,0.477 -11.75,-1.494 -1.786,-1.69 -2.25,-3.23 -2.25,-7.465 0,-11.075 -2.42,-15.257 -6.155,-10.642 -1.33,1.64 -1.845,3.934 -1.845,8.199 0,7.492 1.975,12.244 6.19,14.895 2.93,1.843 4.572,2.046 14.31,1.772 10.886,-0.307 11.004,-0.286 11.333,2.038 0.407,2.877 -3.037,6.784 -7.705,8.739 -7.562,3.168 -24.346,0.795 -27.64,-3.908 -1.974,-2.818 -1.954,-17.98 0.04,-30.68 0.82,-5.224 1.98,-13.1 2.579,-17.5 1.189,-8.742 2.93,-12.5 5.794,-12.5 3.383,0 4.412,2.847 5.354,14.804 0.977,12.394 2.173,16.463 5,17.007 2.4,0.463 4.067,-4.286 3.269,-9.31 -0.35,-2.2 -1.04,-8.5 -1.531,-14 -1.305,-14.57 -1.944,-15.896 -8.674,-18.014 -5.236,-1.646 -6.158,-1.653 -15.4,-0.119 -13.412,2.228 -13.537,3.374 -14.288,0.176 3.743,-8.458 21.882,-10.15 25.278,-10.566 17.926,-2.145 18.09,-0.858 18.09,-14.088 0,-8.294 0.554,-7.698 2.05,-8.89 3.153,-2.508 8.086,-0.485 8.867,4.843 0.164,1.124 0.735,4.26 0.443,7.24 -0.583,5.937 1.17,12.695 3.64,14.038 0.826,0.448 7.788,3.77 15.472,7.38 7.684,3.612 14.997,7.53 16.25,8.707 2.656,2.495 2.92,5.015 0.72,6.841 -1.296,1.076 -2.345,0.908 -6.25,-1.002 -8.261,-4.043 -15.348,-6.046 -21.393,-6.046 -7.876,0 -10.22,2.225 -11.1,10.54 -0.347,3.278 -1.353,8.067 -2.235,10.643 -1.227,3.58 -1.345,5.169 -0.5,6.75 2.558,4.777 6.037,1.144 6.037,-6.302 0,-8.65 3.574,-13.631 9.778,-13.631 5.378,0 8.222,2.29 8.222,6.622 0,4.805 -1.544,7.29 -5.58,8.976 -3.836,1.602 -4.164,2.515 -1.766,4.913 1.23,1.23 2.57,1.482 5.232,0.982 5.119,-0.96 6.877,-2.124 8.72,-5.773 3.312,-6.552 5.143,-7.72 12.1,-7.72 7.932,0 12.664,1.918 15.269,6.19 2.455,4.026 2.515,5.961 0.36,11.604 -2.272,5.948 -0.726,16.693 3.128,21.746 2.402,3.149 3.097,3.46 7.739,3.46 5.043,0 5.18,-0.084 12.267,-7.5 7.73,-8.09 10.65,-9.236 14.025,-5.508 2.08,2.298 2.29,7.175 0.857,19.872 -1.045,9.26 -2.362,11.136 -7.82,11.136 -4.788,0 -16.216,-6.041 -25.03,-13.232 -11.777,-9.606 -23.918,-15.138 -25.964,-11.828 -0.923,1.494 5.315,7.932 13.463,13.895 17.827,13.046 21.466,17.432 18.84,22.71 -1.043,2.099 -3.33,3.44 -10.34,6.067 -10.253,3.843 -15.225,4.24 -18.623,1.49 z m -186.056,-7.133 c -3.63,-1.917 -5.542,-4.993 -4.327,-6.96 0.692,-1.12 11.597,-1.2 15.5,-0.115 3.08,0.857 3.683,3.423 1.565,6.656 -2.015,3.075 -7.376,3.252 -12.738,0.42 z m 74.178,-28.968 c 0,-1.98 -5.747,-52.164 -6.466,-56.25 -2.51,-5.92 16.603,-3.876 21.366,-3.876 19.79,0 21.475,0.45 21.467,2.064 -0.007,1.486 -1.592,15.478 -5.01,51.312 l -0.644,6.75 c 0,0 -30.713,1.532 -30.713,0 z m 8.117,-12.343 c 0.693,-2.594 -0.547,-14.927 -1.688,-16.773 -0.3,-0.486 -1.487,-0.884 -2.636,-0.884 -1.992,0 -2.061,0.363 -1.486,7.815 0.674,8.752 2.116,13.544 3.895,12.95 0.654,-0.217 1.516,-1.616 1.915,-3.108 z m 19.34,1.593 c 1.237,-3.222 0.71,-18.528 -0.665,-19.379 -2.274,-1.406 -3.281,1.067 -3.837,9.427 -0.65,9.752 -0.307,11.702 2.055,11.702 0.977,0 2.079,-0.788 2.448,-1.75 z m -10.082,-2.375 c 0.344,-1.719 0.625,-6.25 0.625,-10.07 0,-6.63 -0.102,-6.93 -2.25,-6.625 -2.12,0.301 -2.25,0.785 -2.25,8.32 0,8.096 0.694,11.5 2.344,11.5 0.498,0 1.188,-1.407 1.53,-3.125 z m 120.334,4.5 c -1.117,-1.116 -0.827,-13.739 0.396,-17.247 1.83,-5.252 7.224,-6.8 10.895,-3.128 2.596,2.596 2.539,6.045 -0.158,9.473 -1.186,1.509 -3.1,4.607 -4.25,6.885 -1.973,3.907 -5.143,5.757 -6.883,4.017 z m -248.551,-6.218 c -2.623,-2.623 -3.597,-10.839 -1.64,-13.827 1.178,-1.796 2.443,-2.33 5.52,-2.33 3.419,0 4.284,0.466 6.03,3.25 2.396,3.821 2.098,9.804 -0.638,12.827 -2.204,2.436 -6.876,2.476 -9.272,0.08 z m 41.877,-23.092 c -1.738,-3.248 -1.176,-5.834 2.069,-9.53 7.198,-8.199 14.546,-0.281 8.419,9.07 -2.062,3.147 -8.89,3.446 -10.488,0.46 z"
         id="path2" /><g
         fill="none"
         stroke="#000000"
         stroke-width="37.759"
         id="g4"><path
           d="m 660.74,507.519 -66.75,66.75 106.8,106.8 -66.75,66.75"
           id="path3" /><path
           d="m 527.24,614.319 66.75,66.75 106.8,-106.8 66.75,66.75"
           id="path4" /></g></g></g><g
     inkscape:label="Ebene 1"
     inkscape:groupmode="layer"
     id="layer1"><ellipse
       style="fill:none;stroke:#000000;stroke-width:2.98163;stroke-miterlimit:12.2;stroke-dasharray:none;stroke-opacity:1"
       id="path1-2"
       cx="79.711693"
       cy="42.872395"
       inkscape:label="Äußerer Kreis"
       transform="rotate(16.726683)"
       rx="62.495548"
       ry="62.495502" /><rect
       style="fill:#000000;stroke:#000000;stroke-width:0;stroke-miterlimit:12.2;stroke-dasharray:none;stroke-opacity:1"
       id="rect5"
       width="10.630146"
       height="10.630146"
       x="-33.409031"
       y="51.632137"
       transform="matrix(0.65850461,-0.75257669,0.65850461,0.75257669,0,0)"
       inkscape:label="Linker Trenner" /><rect
       style="fill:#000000;stroke:#000000;stroke-width:0;stroke-miterlimit:12.2;stroke-dasharray:none;stroke-opacity:1"
       id="rect5-2"
       width="10.630146"
       height="10.630146"
       x="34.927624"
       y="119.96879"
       transform="matrix(0.65850461,-0.75257669,0.65850461,0.75257669,0,0)"
       inkscape:label="Rechter Trenner" /><rect
       style="display:none;opacity:0.15;fill:#000000;stroke:#000000;stroke-width:0;stroke-miterlimit:12.2"
       id="rect1"
       width="92.216576"
       height="6.7659597"
       x="18.919132"
       y="91.846413"
       rx="0"
       ry="0"
       inkscape:label="Lineal" /></g></svg>
